<svg xmlns="http://www.w3.org/2000/svg" width="251.72" height="62.36" overflow="visible">
  <path d="M53.29 40.22c-2.72-1.02-5.43-2.07-8.17-3.06-.65-.24-.87-.53-.71-1.21.4-1.69.37-3.41.09-5.11-.1-.59.1-.75.6-.91 1.78-.58 3.54-1.2 5.31-1.82 1.19-.42 1.67-1.17 1.37-2.13-.28-.91-1.21-1.28-2.38-.89-1.74.58-3.47 1.16-5.19 1.8-.59.22-.92.21-1.2-.43-.54-1.21-1.33-2.28-2.29-3.19-.53-.49-.52-.82-.11-1.37 1.97-2.66 3.9-5.36 5.84-8.04.83-1.15.8-2.13-.06-2.72-.85-.58-1.69-.32-2.51.8-1.97 2.71-3.93 5.44-5.9 8.15-.18.25-.28.73-.8.43-.37-.22-.77-.32-.76-.92.02-5 .01-9.99.01-14.99 0-.32-.04-.66.42-.73 1.01-.16 1.54-.8 1.64-1.78.1-1.01-.49-1.63-1.29-2.1H23.28c-1.61 1.33-1.62 3.24.06 3.75.89.27.87.71.86 1.37-.01 4.28-.07 8.55.03 12.83.04 1.5-.25 2.5-1.73 3.17-.72.32-1.03.31-1.55-.23-2.17-2.29-4.38-4.54-6.59-6.79-.9-.92-1.93-1.02-2.61-.3-.67.7-.57 1.58.33 2.52 2.21 2.3 4.42 4.61 6.67 6.89.46.46.51.74.09 1.26-.95 1.19-1.72 2.51-2.12 3.99-.23.85-.65.91-1.39.75-1.44-.32-2.9-.58-4.35-.83-1.1-.19-1.97.33-2.08 1.27-.12 1.04.39 1.66 1.43 1.85 1.57.29 3.13.63 4.71.86.66.1.87.32.85.98-.06 1.41.15 2.8.65 4.11.32.83.08 1.14-.68 1.5-2.78 1.3-5.52 2.68-8.28 4.02-.7.34-1.17.82-1.13 1.66.06 1.22 1.21 1.84 2.46 1.24 2.91-1.39 5.81-2.82 8.7-4.25.49-.24.77-.29 1.15.25 1.17 1.65 2.69 2.95 4.47 3.91.62.33.64.63.41 1.21-.53 1.33-1 2.69-1.49 4.04-.51 1.4-.28 2.22.72 2.62 1.01.4 1.78-.12 2.31-1.58.49-1.35.99-2.69 1.46-4.05.18-.51.34-.78 1-.64 2.6.56 5.18.32 7.65-.64.76-.3 1.04-.06 1.39.51 1.57 2.5 3.16 4.99 4.75 7.47.66 1.03 1.46 1.27 2.31.76.87-.52 1.02-1.46.36-2.5-1.58-2.5-3.16-4.99-4.77-7.46-.34-.52-.38-.83.17-1.24 1.29-.97 2.34-2.2 3.1-3.61.41-.77.8-.73 1.48-.46 2.56 1.01 5.13 1.97 7.71 2.93.48.18.97.42 1.51.23.66-.22 1.1-.65 1.15-1.38.08-.93-.35-1.46-1.16-1.77zm-26.4-16.89c1.07-.33 1.26-.84 1.25-1.85-.05-5.47 0-10.93-.04-16.4-.01-.86.16-1.24 1.1-1.14 1.02.1 2.36-.31 3.01.2.68.54.21 1.94.22 2.96.02 4.79.04 9.58-.02 14.36-.01 1.03.23 1.52 1.26 1.86 2.16.71 3.98 1.97 5.17 4-5.25 0-10.5 0-15.76-.02-.42 0-.88.15-1.26-.17 1.26-1.83 2.96-3.15 5.07-3.8zm1.99 16.38c-.05-.99.67-1.44 1.63-1.55 3.03-.34 4.79-2.16 5.02-5.25.06-.86.37-1.49 1.24-1.67.66-.14 1.16.2 1.49.77.21.37.15.77.15.89-.17 4.44-3.78 8.09-7.75 8.15-.99.02-1.73-.34-1.78-1.34zM251.29 28.34c-.91-2.6-2.97-3.99-5.55-3.78-2.4.19-4.33 1.26-5.94 2.99-.22.23-.37.56-.77.68-.01-.01-.02-.02-.03-.02v-1.09c-.01-1.62-.54-2.18-2.12-2.21-.88-.02-1.76.03-2.64-.01-.55-.02-.74.15-.79.72-.23 2.26-.53 4.52-.8 6.78-.52 4.32-1.02 8.64-1.57 12.95-.1.78.08 1.04.9 1 1.56-.07 3.12-.04 4.68-.01.58.01.85-.12.91-.77.22-2.38.55-4.76.74-7.15.23-2.89.84-5.61 3.09-7.67.86-.79 1.89-1.45 3.02-.9 1.14.56.82 1.78.7 2.8-.49 4.24-1 8.48-1.52 12.72-.08.64-.07 1.02.79.98 1.56-.08 3.12-.05 4.68-.01.68.02.96-.13 1.04-.88.27-2.74.57-5.48.96-8.2.19-1.31.05-2.68.66-3.92v-.72-1.44-1.68c-.45-.28-.3-.78-.44-1.16zM5.38 32.35c1.74-.65 2.85-2.62 2.48-4.41-.42-2.02-2.06-3.31-4.13-3.23C1.81 24.78.76 26 0 27.58v2.16c.15.27.3.55.45.82 1.01 1.77 3.01 2.5 4.93 1.79zM93.5 22.05c-.6-3.35-3.15-4.9-6.25-5.47-4.12-.76-8.3-.23-12.45-.36-.66-.02-.62.45-.67.9-1.15 9.47-2.31 18.93-3.49 28.39-.09.69.12.82.73.81 1.48-.03 2.97-.1 4.44.02 1.24.1 1.63-.33 1.73-1.55.24-2.86.65-5.71 1-8.56.08-.64.14-1.19 1.1-1.17 1.28.03 2.06.42 2.49 1.72.87 2.65 1.91 5.25 2.85 7.88.4 1.12 1.11 1.69 2.33 1.66 1.72-.03 3.44-.05 5.16.01.93.03.99-.26.66-1.03-1.19-2.79-2.35-5.59-3.48-8.41-.5-1.24-1-2.45-2.43-3.19.54-.29.86-.45 1.17-.62 4.22-2.32 5.95-6.37 5.11-11.03zm-11.65 8.37c-2.59.03-2.57.03-2.23-2.62.22-1.7.44-3.4.58-5.11.08-1.06.45-1.62 1.6-1.38.19.04.4.01.6.01v.03c.4 0 .8-.03 1.2 0 1.95.16 3.06 1.21 3.33 3.14.46 3.39-1.67 5.89-5.08 5.93zM111.77 41.14c-2.92.07-5.83.03-8.75.02-.43 0-1.05.17-.94-.66.25-2.02.51-4.04.74-6.06.08-.69.45-.8 1.05-.79 2.2.03 4.4-.02 6.59.02.76.01 1.07-.24 1.13-1.01.07-.99.19-1.99.39-2.96.17-.83-.09-1.04-.89-1.02-2.2.04-4.4-.01-6.59.03-.69.01-.93-.22-.84-.91.24-1.74.52-3.47.65-5.22.07-.96.43-1.18 1.33-1.17 3 .05 5.99.02 8.99.01.45 0 .98.15 1.06-.61.12-1.23.29-2.46.47-3.68.1-.67-.11-.94-.82-.92-1.56.04-3.12.01-4.68.01-3.8 0-7.59.01-11.39-.01-.69 0-1.08.09-1.15.94-.15 1.87-.45 3.72-.68 5.58-.93 7.52-1.83 15.04-2.8 22.56-.12.96.19 1.05.98 1.04 2.64-.03 5.28-.01 7.91-.01 1.8 0 3.6.03 5.4-.01 1.19-.02 2.72.51 3.48-.22.79-.76.38-2.36.67-3.55.3-1.26-.2-1.43-1.31-1.4zM126.6 21.3c1.57-.11 2.87.5 4.14 1.32 1.56 1.01 2.18.87 3.3-.64.4-.55.75-1.14 1.21-1.63.68-.72.43-1.21-.22-1.75-1.9-1.6-4.09-2.37-6.55-2.63-5.48-.59-10.59 2.98-11.51 8.39-.65 3.88.14 7.15 4.8 8.84 1.2.43 2.42.83 3.59 1.34 1.94.84 2.48 1.91 2.09 3.88-.36 1.83-1.51 2.75-3.43 2.89-1.86.13-3.3-.71-4.7-1.76-1.62-1.22-2.47-1.06-3.71.57-.46.6-.9 1.23-1.4 1.79-.55.6-.49 1.04.12 1.58 2.44 2.19 5.35 3.1 8.53 3.27 4.74-.22 8.56-2.01 10.38-6.59 2.07-5.19 1.08-9.49-4.56-11.53-1.16-.42-2.32-.87-3.43-1.4-1.76-.84-2.24-1.78-1.89-3.41.31-1.49 1.56-2.41 3.24-2.53zM185.87 24.88c-1.6.07-3.2.04-4.79.01-.6-.01-.81.17-.88.79-.36 3.21-.79 6.41-1.16 9.62-.24 2.08-1.21 3.77-2.68 5.19-.84.81-1.91 1.45-3.02.89-1.13-.56-.76-1.79-.7-2.81 0-.04.02-.08.02-.12.51-4.24 1.01-8.47 1.53-12.71.07-.53.09-.89-.67-.86-1.68.06-3.36.04-5.03.01-.57-.01-.72.19-.78.74-.36 3.21-.79 6.41-1.13 9.62-.2 1.9-.62 3.78-.47 5.71.37 4.61 3.85 6.85 8.19 5.26 1.64-.6 2.95-1.68 4.29-3.21v.88c.04 1.88.57 2.41 2.44 2.42.76 0 1.52-.04 2.28.01.7.05.97-.16 1.03-.9.13-1.67.39-3.33.59-4.99.59-4.87 1.18-9.74 1.79-14.61.06-.68-.04-.97-.85-.94zM143.83 25.12c-4.88 1.67-8.19 6.6-8.22 12.18-.01 3.43.88 6.47 4.06 8.25 3.32 1.86 6.73 1.55 9.9-.38 4.26-2.58 6.04-6.61 6.19-10.71.07-7.58-5.46-11.56-11.93-9.34zm4.42 13.95c-.58 1.25-1.35 2.36-2.82 2.72-1.53.37-2.77-.29-3.09-1.82-.6-2.94-.28-5.79 1.14-8.47.38-.71.91-1.31 1.62-1.72 1.74-.99 3.47-.24 3.97 1.68.21.79.17 1.58.21 2.2 0 1.99-.27 3.76-1.03 5.41zM219.34 25.12c-5.14 1.74-8.45 6.99-8.2 13.02.25 6.21 5.1 9.8 11.11 8.23 5.34-1.4 9.03-6.57 9.03-12.67 0-6.87-5.45-10.78-11.94-8.58zm4.28 14.23c-.58 1.22-1.41 2.22-2.87 2.48-1.4.25-2.42-.35-2.85-1.71-.1-.3-.18-.62-.21-.93-.06-.59-.07-1.19-.09-1.43 0-2.13.28-3.85.99-5.48.42-.97.99-1.82 1.89-2.41 1.78-1.16 3.74-.38 4.12 1.67.49 2.69.19 5.32-.98 7.81zM202.24 24.96c-.92-.01-1.84-.02-2.76-.02-1.75 0-1.75 0-1.55-1.69.05-.44.08-.87.15-1.31.53-3.4.53-3.37-2.92-3.29-.96.02-1.46.43-1.74 1.3-.42 1.33-.96 2.62-1.32 3.96-.21.78-.65 1.06-1.38 1.2-2.19.43-2.18.46-2.48 2.66-.16 1.18.14 1.65 1.29 1.56 1.27-.1 1.29.42 1.15 1.44-.48 3.44-.91 6.88-1.27 10.33-.3 2.78 1.46 4.97 4.22 5.47 1.97.35 3.81-.06 5.58-.86 1.58-.72 1.57-.75.82-2.34-.22-.47-.45-.93-.65-1.41-.3-.74-.77-.99-1.49-.56-1.25.76-2.21-.16-2.04-1.51.41-3.24.8-6.49 1.18-9.74.07-.59.28-.83.9-.8 1.12.05 2.24 0 3.36.02.48.01.71-.13.76-.66.11-1.23.28-2.45.43-3.67-.09-.02-.17-.08-.24-.08zM165.64 15.33c-1.47.08-2.96.07-4.43 0-.83-.04-1.05.25-1.15 1.05-1.08 9.11-2.19 18.21-3.31 27.32-.32 2.63-.35 2.63 2.34 2.63h.6c.76 0 1.52-.04 2.28.01.71.05.91-.17 1-.91.65-5.63 1.37-11.24 2.06-16.87.5-4.08.98-8.16 1.5-12.23.08-.74-.03-1.05-.89-1zM210.03 24.88c-1.36.07-2.72.1-4.08-.01-1.08-.08-1.41.29-1.52 1.34-.65 5.83-1.35 11.66-2.08 17.48-.33 2.63-.37 2.63 2.25 2.63h.6c.76 0 1.52-.04 2.28.01.72.05 1.03-.12 1.1-.94.2-2.27.53-4.52.81-6.78.51-4.24 1-8.48 1.54-12.72.09-.77-.06-1.05-.9-1.01zM56.98 19.71c-2.46-.03-4.45 1.94-4.43 4.37.02 2.4 1.96 4.33 4.36 4.34 2.44.01 4.31-1.87 4.32-4.32.01-2.48-1.82-4.37-4.25-4.39zM19.87 54.52c-1.64.46-2.81 1.98-2.85 3.71-.05 1.88.95 3.23 2.88 3.9.03.07.04.15.02.22h1.92c.02-.06.04-.13.05-.19.91-.15 1.62-.63 2.18-1.34 1.13-1.45 1.18-3.28.14-4.78-.93-1.34-2.73-1.97-4.34-1.52zM208.35 15.24c-2 .04-3.7 1.78-3.71 3.79 0 2.03 1.7 3.75 3.7 3.75 2.06 0 3.87-1.77 3.85-3.78-.01-2.06-1.78-3.8-3.84-3.76zM8.87 13.91c1.65 0 2.93-1.3 2.92-2.96-.01-1.67-1.31-2.94-2.98-2.91-1.66.03-2.9 1.34-2.86 3.02.05 1.6 1.32 2.85 2.92 2.85zM58.21 40.82c-1.58.02-2.85 1.33-2.86 2.96-.01 1.63 1.24 2.93 2.84 2.96 1.62.03 3-1.31 3-2.94 0-1.64-1.35-3-2.98-2.98zM48.79 10.79c1.62 0 2.86-1.24 2.88-2.88.03-1.69-1.12-2.91-2.77-2.95-1.72-.05-3.02 1.16-3.06 2.84-.04 1.58 1.35 2.99 2.95 2.99zM45.99 56.08c-1.7 0-2.94 1.24-2.92 2.93.02 1.62 1.25 2.88 2.85 2.9a2.95 2.95 0 003.01-2.89c.03-1.65-1.26-2.94-2.94-2.94zM3.5 44.1C2 43.87.96 44.49.23 46.04c-.08 0-.16.01-.23.01v1.68l.09.05.11-.02c.67 1.79 2.24 2.58 3.85 1.93 1.26-.5 2.04-1.75 1.89-3.01-.16-1.34-1.15-2.38-2.44-2.58z"/>
</svg>