<svg xmlns="http://www.w3.org/2000/svg" width="11.877" height="21"><path d="M 6.393 9.217 C 3.745 8.528 2.893 7.817 2.893 6.708 C 2.893 5.437 4.072 4.55 6.043 4.55 C 8.12 4.55 8.89 5.542 8.96 7 L 11.538 7 C 11.457 4.993 10.232 3.15 7.793 2.555 L 7.793 0 L 4.293 0 L 4.293 2.52 C 2.03 3.01 0.21 4.48 0.21 6.732 C 0.21 9.427 2.438 10.768 5.693 11.55 C 8.61 12.25 9.193 13.277 9.193 14.362 C 9.193 15.167 8.622 16.45 6.043 16.45 C 3.64 16.45 2.695 15.377 2.567 14 L 0 14 C 0.14 16.555 2.053 17.99 4.293 18.468 L 4.293 21 L 7.793 21 L 7.793 18.492 C 10.068 18.06 11.877 16.742 11.877 14.35 C 11.877 11.037 9.042 9.905 6.393 9.217 Z" fill="rgb(255,255,255)" stroke-width="0.75" stroke="hsl(0, 0%, 100%)" stroke-miterlimit="11.666666666666668"></path></svg>