<svg xmlns="http://www.w3.org/2000/svg" viewBox="0 0 53.242 40.605">
  <path fill="hsla(0, 0%, 46%, 0.24)" d="M23.09 21.934c1.086 1.813 1.72 3.988 1.72 6.435 0 3.626-1.177 6.526-3.441 8.792s-5.342 3.444-8.964 3.444c-3.622 0-6.61-1.087-8.874-3.353C1.268 34.986 0 31.995 0 28.369c0-1.631.181-3.353.634-4.985.453-1.631 1.449-4.169 2.988-7.432L10.503 0h12.949l-5.071 17.765c1.992.906 3.622 2.266 4.709 4.169zm28.431 0c1.087 1.813 1.721 3.988 1.721 6.435 0 3.626-1.177 6.526-3.441 8.792-2.354 2.266-5.342 3.444-8.964 3.444-3.622 0-6.61-1.178-8.874-3.444-2.354-2.175-3.531-5.166-3.531-8.792 0-1.631.181-3.353.634-4.985.452-1.631 1.448-4.169 2.897-7.432L39.026 0h12.948l-5.161 17.765c2.083.906 3.622 2.266 4.708 4.169z"/>
</svg>
